<?xml version="1.0" standalone="no"?>
<!DOCTYPE svg PUBLIC "-//W3C//DTD SVG 20010904//EN"
 "http://www.w3.org/TR/2001/REC-SVG-20010904/DTD/svg10.dtd">
<svg version="1.0" xmlns="http://www.w3.org/2000/svg"
 width="640.000000pt" height="640.000000pt" viewBox="0 0 640.000000 640.000000"
 preserveAspectRatio="xMidYMid meet">

<g transform="translate(0.000000,640.000000) scale(0.100000,-0.100000)"
fill="#000000" stroke="none">
<path d="M4325 5550 c-284 -60 -685 -262 -1040 -525 l-74 -54 -39 13 c-74 26
-190 39 -300 33 -176 -9 -305 -43 -460 -119 l-103 -51 -132 131 c-73 72 -145
136 -160 141 -116 44 -243 -35 -255 -159 -7 -74 20 -118 161 -258 l124 -123
-43 -82 c-127 -242 -168 -559 -98 -769 l15 -47 -54 -73 c-188 -254 -361 -559
-452 -798 -186 -487 -88 -842 260 -946 80 -24 251 -24 364 0 112 24 284 84
412 144 351 164 797 477 1162 814 l99 91 134 -134 133 -134 -32 -65 c-30 -62
-32 -71 -32 -180 0 -109 2 -119 32 -182 36 -77 107 -158 170 -195 l43 -25 0
-258 c0 -159 4 -270 11 -287 25 -68 97 -116 174 -116 77 0 131 36 169 110 13
27 16 72 16 291 l0 260 49 32 c190 121 255 367 151 569 -28 56 -110 143 -164
175 -54 32 -139 56 -195 56 l-46 0 -174 174 -174 175 73 78 c245 262 504 602
672 883 355 591 422 1039 193 1279 -65 68 -145 114 -236 136 -87 20 -243 18
-354 -5z m267 -360 c20 -6 47 -23 59 -38 19 -25 21 -36 17 -132 -4 -87 -11
-124 -42 -215 -230 -686 -1083 -1670 -1932 -2228 -335 -221 -617 -342 -820
-354 -71 -4 -97 -2 -121 11 -39 20 -41 23 -52 81 -37 197 142 612 448 1043 71
100 101 134 120 137 14 3 62 17 106 31 386 123 923 683 1012 1053 l17 71 111
79 c450 324 891 512 1077 461z m-1582 -557 c9 -9 -71 -150 -133 -233 -133
-179 -348 -376 -508 -467 -124 -69 -119 -71 -119 39 0 366 228 626 587 667 63
8 162 4 173 -6z m1379 -2200 c34 -42 8 -95 -45 -95 -31 0 -64 33 -64 63 0 27
35 59 64 59 15 0 33 -11 45 -27z"/>
</g>
</svg>
