<?xml version="1.0" encoding="UTF-8"?>
<!DOCTYPE svg PUBLIC "-//W3C//DTD SVG 1.1//EN" "http://www.w3.org/Graphics/SVG/1.1/DTD/svg11.dtd">
<svg xmlns="http://www.w3.org/2000/svg" version="1.1" width="640px" height="640px" style="shape-rendering:geometricPrecision; text-rendering:geometricPrecision; image-rendering:optimizeQuality; fill-rule:evenodd; clip-rule:evenodd" xmlns:xlink="http://www.w3.org/1999/xlink">
<g><path style="opacity:0.938" fill="#000000" d="M 314.5,98.5 C 326.652,97.1767 334.819,102.177 339,113.5C 339.5,133.831 339.667,154.164 339.5,174.5C 355.317,175.297 370.65,178.463 385.5,184C 395.952,188.129 404.286,194.796 410.5,204C 443.122,208.739 474.789,217.072 505.5,229C 524.495,236.682 540.661,248.182 554,263.5C 569.764,287.699 567.597,310.199 547.5,331C 567.51,351.824 569.676,374.324 554,398.5C 539.243,414.978 521.409,427.145 500.5,435C 470.085,446.35 438.752,454.017 406.5,458C 384.244,460.827 361.911,462.661 339.5,463.5C 339.667,483.503 339.5,503.503 339,523.5C 334.037,536.398 324.871,540.898 311.5,537C 305.508,534.341 301.675,529.841 300,523.5C 299.5,503.503 299.333,483.503 299.5,463.5C 256.18,462.418 213.513,456.585 171.5,446C 143.508,439.334 118.174,427.334 95.5,410C 69.1302,384.809 67.7969,358.475 91.5,331C 67.7108,303.489 69.0441,277.155 95.5,252C 119.453,234.112 146.12,221.778 175.5,215C 193.07,210.819 210.737,207.153 228.5,204C 234.319,195.522 241.985,189.189 251.5,185C 266.897,178.754 282.897,175.254 299.5,174.5C 299.333,154.164 299.5,133.831 300,113.5C 302.351,105.984 307.184,100.984 314.5,98.5 Z M 306.5,213.5 C 318.863,213.283 331.197,213.783 343.5,215C 348.972,215.633 354.305,216.8 359.5,218.5C 332.835,225.14 306.168,225.14 279.5,218.5C 288.466,215.986 297.466,214.319 306.5,213.5 Z M 236.5,243.5 C 253.201,254.123 271.534,260.29 291.5,262C 324.341,266.227 356.341,262.894 387.5,252C 392.333,249.418 397,246.585 401.5,243.5C 430.952,247.53 459.618,254.696 487.5,265C 499.378,269.852 510.212,276.352 520,284.5C 522.03,287.226 523.53,290.226 524.5,293.5C 522.945,299.894 519.278,304.728 513.5,308C 496.238,319.094 477.571,327.094 457.5,332C 378.063,350.775 298.063,353.442 217.5,340C 191.588,335.695 166.588,328.362 142.5,318C 132.213,313.366 123.38,306.866 116,298.5C 113.872,293.205 114.872,288.538 119,284.5C 128.788,276.352 139.622,269.852 151.5,265C 179.198,254.826 207.531,247.659 236.5,243.5 Z M 124.5,354.5 C 159.118,368.989 195.118,378.489 232.5,383C 310.192,393.332 387.192,389.665 463.5,372C 480.507,367.553 497.007,361.72 513,354.5C 521.296,358.409 524.63,364.742 523,373.5C 517.372,380.457 510.539,385.957 502.5,390C 472.935,403.809 441.935,412.809 409.5,417C 338.478,427.174 267.812,425.174 197.5,411C 176.324,406.386 155.991,399.386 136.5,390C 130.388,386.221 124.555,382.055 119,377.5C 116.457,375.047 114.957,372.047 114.5,368.5C 116.383,362.711 119.716,358.044 124.5,354.5 Z"/></g>
</svg>
