<?xml version="1.0" encoding="UTF-8"?>
<!DOCTYPE svg PUBLIC "-//W3C//DTD SVG 1.1//EN" "http://www.w3.org/Graphics/SVG/1.1/DTD/svg11.dtd">
<svg xmlns="http://www.w3.org/2000/svg" version="1.1" width="640px" height="640px" style="shape-rendering:geometricPrecision; text-rendering:geometricPrecision; image-rendering:optimizeQuality; fill-rule:evenodd; clip-rule:evenodd" xmlns:xlink="http://www.w3.org/1999/xlink">
<g><path style="opacity:0.939" fill="#000000" d="M 313.5,34.5 C 409.448,36.5361 482.281,78.2027 532,159.5C 569.455,229.973 573.455,302.306 544,376.5C 527.093,414.134 502.593,445.967 470.5,472C 484.457,492.747 498.291,513.581 512,534.5C 515.744,546.278 512.244,555.111 501.5,561C 493.954,563.613 486.954,562.613 480.5,558C 466,536.833 451.5,515.667 437,494.5C 406.302,511.455 373.468,521.455 338.5,524.5C 338.5,532.167 338.5,539.833 338.5,547.5C 350.171,547.333 361.838,547.5 373.5,548C 389.771,555.815 392.771,567.148 382.5,582C 379.952,584.442 376.952,586.108 373.5,587C 336.833,587.667 300.167,587.667 263.5,587C 252.016,582.835 247.183,574.668 249,562.5C 251.167,555 256,550.167 263.5,548C 275.162,547.5 286.829,547.333 298.5,547.5C 298.5,539.833 298.5,532.167 298.5,524.5C 263.532,521.455 230.698,511.455 200,494.5C 185.833,515.333 171.667,536.167 157.5,557C 147.255,564.692 137.422,564.192 128,555.5C 123.387,549.046 122.387,542.046 125,534.5C 138.709,513.581 152.543,492.747 166.5,472C 95.3932,412.396 65.2265,336.229 76,243.5C 89.4271,167.784 128.594,109.617 193.5,69C 230.748,47.5252 270.748,36.0252 313.5,34.5 Z M 299.5,75.5 C 370.911,71.4527 430.077,96.1194 477,149.5C 526.038,214.117 536.038,284.45 507,360.5C 480.728,419.068 436.894,457.901 375.5,477C 363.383,480.464 351.05,482.63 338.5,483.5C 338.167,467.153 338.501,450.82 339.5,434.5C 380.875,416.749 395.708,386.082 384,342.5C 367.797,308.48 340.964,293.98 303.5,299C 273.597,307.569 255.431,327.069 249,357.5C 246.612,394.93 262.779,420.596 297.5,434.5C 298.499,450.82 298.833,467.153 298.5,483.5C 216.255,473.139 159.089,429.806 127,353.5C 105.093,291.048 110.426,231.048 143,173.5C 179.849,116.645 232.016,83.9782 299.5,75.5 Z M 313.5,337.5 C 339.249,338.077 350.415,351.077 347,376.5C 340.013,393.411 327.513,399.911 309.5,396C 294.148,390.143 287.315,378.976 289,362.5C 292.014,348.987 300.181,340.653 313.5,337.5 Z"/></g>
</svg>
