<?xml version="1.0" standalone="no"?>
<!DOCTYPE svg PUBLIC "-//W3C//DTD SVG 20010904//EN"
 "http://www.w3.org/TR/2001/REC-SVG-20010904/DTD/svg10.dtd">
<svg version="1.0" xmlns="http://www.w3.org/2000/svg"
 width="640.000000pt" height="640.000000pt" viewBox="0 0 640.000000 640.000000"
 preserveAspectRatio="xMidYMid meet">

<g transform="translate(0.000000,640.000000) scale(0.100000,-0.100000)"
fill="#000000" stroke="none">
<path d="M3479 4978 c-53 -30 -75 -77 -98 -213 -12 -66 -23 -130 -26 -142 -5
-21 -11 -23 -83 -23 -264 0 -588 -110 -748 -253 -82 -73 -49 -70 -507 -51
-610 24 -1000 9 -1304 -51 -308 -62 -492 -158 -568 -297 -25 -45 -30 -64 -30
-124 0 -61 5 -80 37 -146 154 -311 813 -642 1836 -922 225 -61 571 -143 777
-182 77 -15 143 -30 147 -33 7 -6 -46 -323 -57 -341 -3 -6 -21 -10 -39 -10
-46 0 -138 -33 -188 -68 -64 -45 -103 -89 -145 -167 l-38 -70 -230 -41 c-259
-46 -263 -47 -299 -75 -91 -72 -85 -231 12 -291 63 -39 86 -38 339 6 l238 43
56 -53 c69 -64 157 -110 240 -123 72 -12 119 -7 204 20 246 80 361 391 225
612 l-30 48 37 212 c20 117 40 217 45 223 6 8 41 6 124 -7 925 -143 1845 -168
2364 -63 146 29 279 72 364 117 85 44 188 148 209 211 121 358 -472 748 -1688
1111 -258 77 -280 87 -299 136 -80 200 -377 454 -636 545 -36 12 -69 29 -74
37 -6 9 -1 59 13 133 11 66 21 140 21 164 0 54 -27 102 -72 130 -42 26 -84 25
-129 -2z m46 -742 c124 -40 236 -108 337 -207 48 -47 88 -92 88 -101 0 -23
-30 -28 -182 -28 -209 0 -453 37 -673 102 -118 35 -269 103 -260 117 3 6 34
26 68 45 186 104 433 132 622 72z m-1225 -279 l135 -3 80 -49 c127 -78 253
-141 350 -175 199 -69 458 -126 692 -151 133 -14 459 -7 518 11 22 7 83 13
135 14 88 1 107 -3 260 -51 91 -28 192 -58 225 -68 282 -78 740 -264 919 -374
134 -82 240 -178 260 -235 24 -69 -147 -141 -430 -180 -593 -82 -1646 0 -2640
204 -855 176 -1615 430 -1988 664 -161 102 -227 172 -213 228 18 72 264 140
617 172 43 4 792 -1 1080 -7z m602 -2144 c36 -33 11 -103 -37 -103 -52 0 -80
60 -45 98 25 26 56 28 82 5z"/>
</g>
</svg>
