<?xml version="1.0" standalone="no"?>
<!DOCTYPE svg PUBLIC "-//W3C//DTD SVG 20010904//EN"
 "http://www.w3.org/TR/2001/REC-SVG-20010904/DTD/svg10.dtd">
<svg version="1.0" xmlns="http://www.w3.org/2000/svg"
 width="640.000000pt" height="640.000000pt" viewBox="0 0 640.000000 640.000000"
 preserveAspectRatio="xMidYMid meet">

<g transform="translate(0.000000,640.000000) scale(0.100000,-0.100000)"
fill="#000000" stroke="none">
<path d="M2807 5070 c-773 -34 -1431 -148 -1820 -314 -225 -96 -359 -202 -424
-334 l-38 -76 0 -1135 c0 -1075 1 -1139 18 -1188 128 -368 927 -617 2192 -684
248 -13 937 -7 1155 11 1047 83 1726 283 1929 566 82 114 76 18 76 1294 l0
1135 -32 67 c-37 78 -102 152 -188 213 -302 215 -950 370 -1795 430 -265 18
-821 26 -1073 15z m1133 -394 c752 -65 1349 -209 1540 -373 l43 -37 -42 -37
c-107 -95 -409 -201 -774 -273 -753 -148 -1845 -169 -2692 -50 -512 72 -929
197 -1075 321 l-43 37 42 37 c210 187 940 344 1821 393 175 9 1006 -3 1180
-18z m-2930 -911 c168 -72 460 -149 750 -199 881 -150 2019 -150 2900 0 290
50 582 127 750 199 47 20 91 39 98 42 9 4 12 -104 12 -520 l0 -525 -41 -36
c-110 -94 -411 -199 -772 -270 -855 -169 -2139 -169 -2994 0 -361 71 -662 176
-772 270 l-41 36 0 525 c0 416 3 524 13 520 6 -3 50 -22 97 -42z m0 -1500 c47
-20 143 -54 214 -76 1043 -314 2929 -314 3972 0 71 22 167 56 214 76 47 20 91
39 98 42 10 4 12 -15 10 -88 l-3 -94 -72 -48 c-407 -271 -1650 -429 -2818
-356 -782 48 -1445 196 -1680 375 l-45 35 0 91 c0 68 3 89 13 85 6 -3 50 -22
97 -42z"/>
</g>
</svg>
