<?xml version="1.0" standalone="no"?>
<!DOCTYPE svg PUBLIC "-//W3C//DTD SVG 20010904//EN"
 "http://www.w3.org/TR/2001/REC-SVG-20010904/DTD/svg10.dtd">
<svg version="1.0" xmlns="http://www.w3.org/2000/svg"
 width="640.000000pt" height="640.000000pt" viewBox="0 0 640.000000 640.000000"
 preserveAspectRatio="xMidYMid meet">

<g transform="translate(0.000000,640.000000) scale(0.100000,-0.100000)"
fill="#000000" stroke="none">
<path d="M2880 5079 c-633 -38 -1173 -184 -1445 -392 -80 -61 -163 -164 -197
-246 l-23 -56 -3 -1140 c-2 -793 1 -1155 8 -1192 60 -286 410 -501 1015 -622
342 -69 681 -96 1090 -88 398 8 711 46 1018 124 520 130 807 330 856 597 15
79 15 2220 1 2297 -24 130 -122 265 -260 359 -385 262 -1230 409 -2060 359z
m710 -379 c586 -44 1101 -190 1287 -365 l55 -53 -17 -26 c-27 -41 -131 -114
-230 -161 -227 -108 -550 -187 -955 -232 -225 -25 -811 -25 -1040 0 -502 55
-891 166 -1095 312 -35 25 -74 59 -86 76 l-22 31 58 55 c42 39 91 70 179 113
278 135 618 211 1141 253 99 8 603 6 725 -3z m-1775 -1032 c725 -259 1922
-272 2700 -30 110 34 269 101 339 142 37 22 70 40 72 40 2 0 4 -236 4 -525 l0
-526 -46 -45 c-159 -154 -569 -289 -1057 -349 -919 -111 -1980 50 -2288 347
l-49 47 0 524 0 525 113 -57 c61 -31 157 -73 212 -93z m0 -1500 c725 -259
1922 -272 2700 -30 110 34 269 101 339 142 37 22 70 40 72 40 2 0 4 -38 4 -85
0 -84 -1 -86 -36 -125 -161 -178 -663 -329 -1269 -381 -184 -16 -641 -16 -830
0 -575 49 -1054 186 -1243 356 l-62 57 0 88 0 88 113 -57 c61 -31 157 -73 212
-93z"/>
</g>
</svg>
