<?xml version="1.0" standalone="no"?>
<!DOCTYPE svg PUBLIC "-//W3C//DTD SVG 20010904//EN"
 "http://www.w3.org/TR/2001/REC-SVG-20010904/DTD/svg10.dtd">
<svg version="1.0" xmlns="http://www.w3.org/2000/svg"
 width="640.000000pt" height="640.000000pt" viewBox="0 0 640.000000 640.000000"
 preserveAspectRatio="xMidYMid meet">

<g transform="translate(0.000000,640.000000) scale(0.100000,-0.100000)"
fill="#000000" stroke="none">
<path d="M2920 5733 c-327 -22 -547 -51 -775 -104 -251 -58 -416 -114 -600
-205 -227 -112 -380 -248 -459 -408 -70 -141 -67 -61 -64 -1634 l3 -1417 24
-65 c64 -175 190 -318 376 -427 l64 -38 3 -360 c3 -342 4 -362 24 -395 63
-109 215 -109 278 0 20 33 21 54 24 323 2 158 5 287 7 287 2 0 39 -11 82 -24
207 -65 474 -117 758 -148 268 -30 802 -32 1055 -5 304 33 644 98 814 157 33
11 60 20 62 20 2 0 4 -127 6 -282 3 -264 4 -285 24 -318 63 -109 215 -109 278
0 20 33 21 53 24 386 l3 352 62 38 c207 126 338 280 395 464 15 50 17 174 19
1444 4 1561 6 1495 -66 1641 -83 166 -227 294 -459 409 -334 166 -776 269
-1312 306 -131 9 -537 11 -650 3z m763 -478 c635 -55 1229 -259 1388 -478 27
-37 27 -41 14 -67 -22 -42 -113 -119 -207 -175 -267 -159 -687 -273 -1184
-322 -246 -24 -712 -24 -958 0 -528 52 -977 179 -1235 351 -73 49 -171 146
-171 169 0 27 91 116 177 173 426 284 1299 424 2176 349z m-2099 -1230 c272
-129 658 -226 1076 -271 198 -21 719 -30 918 -15 661 50 1182 195 1500 418
l22 15 0 -646 c0 -538 -2 -652 -14 -674 -16 -30 -100 -113 -133 -130 -20 -11
-21 -9 -25 111 -3 105 -7 128 -27 163 -65 115 -228 109 -282 -10 -16 -36 -19
-68 -19 -243 l0 -201 -93 -31 c-206 -68 -500 -126 -802 -158 -257 -27 -752
-25 -1020 5 -300 33 -544 82 -767 154 l-96 32 -4 200 c-3 190 -4 203 -27 242
-65 115 -228 109 -282 -10 -14 -32 -19 -65 -19 -148 0 -76 -3 -108 -12 -108
-6 0 -42 31 -80 68 l-68 69 0 656 0 657 71 -46 c39 -26 122 -70 183 -99z
m-141 -1790 l47 -27 0 -135 0 -134 -31 18 c-17 10 -53 42 -80 71 l-49 54 0
114 0 115 33 -24 c17 -13 53 -37 80 -52z m3633 -174 c-22 -31 -56 -63 -128
-120 -17 -13 -18 -5 -18 125 l1 139 82 50 82 51 3 -105 c3 -97 1 -106 -22
-140z m-3041 -57 c180 -48 432 -91 665 -114 609 -61 1324 -3 1803 146 43 13
82 24 88 24 6 0 8 -56 7 -147 l-3 -148 -85 -28 c-151 -49 -347 -94 -570 -131
-90 -15 -344 -37 -525 -46 -506 -26 -1110 48 -1520 183 l-70 24 -3 150 -3 151
63 -20 c35 -11 104 -31 153 -44z"/>
</g>
</svg>
