<?xml version="1.0" standalone="no"?>
<!DOCTYPE svg PUBLIC "-//W3C//DTD SVG 20010904//EN"
 "http://www.w3.org/TR/2001/REC-SVG-20010904/DTD/svg10.dtd">
<svg version="1.0" xmlns="http://www.w3.org/2000/svg"
 width="640.000000pt" height="640.000000pt" viewBox="0 0 640.000000 640.000000"
 preserveAspectRatio="xMidYMid meet">

<g transform="translate(0.000000,640.000000) scale(0.100000,-0.100000)"
fill="#000000" stroke="none">
<path d="M2980 5080 c-509 -30 -945 -143 -1207 -312 -145 -94 -233 -200 -280
-337 l-22 -66 -1 -1145 c0 -1263 -3 -1200 63 -1324 149 -282 654 -487 1347
-547 170 -15 662 -6 815 15 646 87 1068 280 1200 551 58 118 56 70 53 1321
l-3 1149 -23 60 c-90 241 -348 415 -787 530 -326 86 -782 127 -1155 105z m685
-394 c464 -59 817 -181 982 -341 29 -28 53 -60 53 -70 0 -11 -29 -47 -64 -80
-177 -170 -598 -302 -1105 -346 -176 -15 -635 -7 -801 15 -229 30 -463 84
-620 143 -171 64 -338 170 -382 241 l-21 34 71 68 c184 177 622 311 1157 354
112 9 615 -4 730 -18z m-1788 -965 c478 -240 1258 -323 1967 -210 318 51 637
157 798 266 24 16 49 33 56 37 9 6 12 -101 12 -520 l0 -527 -67 -66 c-179
-175 -596 -307 -1112 -352 -176 -15 -635 -7 -801 15 -409 54 -726 157 -912
297 -117 87 -108 36 -108 638 l0 522 43 -29 c23 -16 79 -48 124 -71z m0 -1500
c478 -240 1258 -323 1967 -210 327 52 634 156 807 273 l54 36 3 -81 c3 -74 0
-86 -23 -121 -100 -151 -485 -304 -930 -369 -784 -113 -1693 38 -1987 332
l-58 57 0 92 0 91 43 -29 c23 -16 79 -48 124 -71z"/>
</g>
</svg>
