<?xml version="1.0" standalone="no"?>
<!DOCTYPE svg PUBLIC "-//W3C//DTD SVG 20010904//EN"
 "http://www.w3.org/TR/2001/REC-SVG-20010904/DTD/svg10.dtd">
<svg version="1.0" xmlns="http://www.w3.org/2000/svg"
 width="900.000000pt" height="900.000000pt" viewBox="0 0 900.000000 900.000000"
 preserveAspectRatio="xMidYMid meet">

<g transform="translate(0.000000,900.000000) scale(0.100000,-0.100000)"
fill="#000000" stroke="none">
<path d="M559 8809 c-32 -32 -46 -75 -63 -191 -20 -132 -20 -211 -1 -324 49
-286 206 -599 385 -768 91 -86 143 -120 260 -170 54 -24 116 -57 137 -73 51
-41 76 -47 110 -29 50 27 402 379 409 408 4 18 -2 44 -19 80 -14 29 -45 104
-70 166 -105 262 -302 462 -517 527 -30 9 -92 27 -138 41 -172 50 -283 133
-350 261 -49 92 -98 117 -143 72z m411 -567 c36 -11 92 -28 125 -37 96 -28
152 -64 231 -148 85 -90 157 -222 169 -307 l7 -52 -58 -59 -58 -59 -71 0 c-84
0 -142 24 -227 94 -147 120 -307 416 -343 633 l-7 43 84 -44 c45 -25 112 -53
148 -64z"/>
<path d="M8067 8495 c-238 -60 -480 -275 -597 -530 l-39 -82 -678 -605 c-373
-333 -736 -661 -808 -728 -132 -125 -3569 -3544 -4741 -4716 -731 -731 -696
-688 -702 -855 -4 -80 0 -109 17 -162 68 -204 213 -305 425 -295 77 3 103 9
166 38 l75 33 2628 2626 c2350 2348 2794 2797 3012 3045 68 78 94 106 139 156
18 19 230 258 472 531 433 486 442 496 505 523 278 120 526 422 555 674 7 63
-8 158 -33 205 -25 49 -99 114 -150 131 -67 24 -176 29 -246 11z m164 -235
c28 -15 25 -98 -5 -173 -74 -179 -290 -372 -450 -402 -36 -7 -167 -151 -865
-944 -31 -35 -65 -73 -76 -86 -11 -12 -36 -39 -55 -61 -19 -21 -89 -100 -155
-174 -88 -100 -4957 -4995 -5517 -5547 -117 -116 -185 -138 -278 -90 -79 39
-114 125 -90 218 10 41 223 256 2733 2765 1698 1697 2758 2749 2817 2796 52
42 111 90 130 108 19 17 62 55 94 83 33 29 304 267 602 529 493 435 542 481
549 515 16 87 109 230 206 317 121 108 296 180 360 146z"/>
<path d="M4260 8414 c-179 -13 -421 -50 -645 -98 -120 -27 -188 -18 -330 41
-81 34 -118 28 -311 -50 -237 -95 -308 -147 -334 -247 -29 -108 -79 -162 -271
-291 -64 -43 -119 -85 -123 -94 -19 -51 -8 -72 89 -162 52 -48 106 -92 119
-97 21 -8 37 -1 108 46 732 487 1604 684 2468 557 520 -76 961 -247 1467 -568
62 -40 62 -39 178 62 107 95 115 104 115 143 0 32 -6 38 -147 133 -82 54 -167
118 -190 142 -41 43 -113 170 -113 199 0 23 -52 75 -97 98 -83 43 -301 131
-359 146 -93 24 -126 21 -207 -21 -70 -37 -75 -38 -172 -37 -68 0 -140 9 -225
27 -234 51 -402 68 -695 71 -148 2 -295 2 -325 0z m1771 -219 c89 -47 92 -193
5 -250 -63 -41 -160 -21 -201 42 -28 42 -26 119 4 162 41 57 129 78 192 46z
m-2946 -35 c71 -35 99 -110 67 -184 -24 -54 -58 -78 -120 -83 -154 -13 -211
200 -72 269 45 23 74 23 125 -2z"/>
<path d="M1950 7483 c-14 -9 -77 -66 -140 -127 -63 -61 -150 -142 -192 -179
-81 -73 -104 -111 -94 -151 6 -23 783 -920 891 -1028 98 -99 101 -98 412 197
169 161 260 254 265 272 11 39 -7 77 -57 121 -24 20 -114 103 -201 183 -349
321 -790 712 -812 720 -33 13 -44 11 -72 -8z m440 -644 c209 -189 379 -347
378 -353 -4 -16 -239 -238 -248 -234 -6 2 -229 256 -639 726 l-55 64 80 73
c43 41 84 72 91 70 6 -2 183 -158 393 -346z"/>
<path d="M7569 6753 c-83 -87 -149 -174 -149 -196 0 -13 29 -68 63 -123 533
-837 691 -1849 437 -2799 -94 -353 -265 -742 -442 -1002 -44 -65 -40 -78 65
-180 139 -137 163 -136 263 15 33 51 74 106 90 123 38 39 124 92 196 119 66
24 101 60 135 140 13 30 27 62 32 71 22 39 81 192 95 246 25 95 21 134 -21
216 -37 69 -38 76 -37 167 1 62 12 147 32 245 56 272 67 397 67 745 0 358 -10
463 -76 795 -48 241 -46 293 21 441 31 67 23 120 -38 274 -79 199 -127 289
-177 328 -14 11 -55 30 -91 42 -115 37 -149 70 -302 295 -44 65 -50 70 -87 73
-35 3 -44 -2 -76 -35z m504 -627 c18 -7 45 -28 60 -45 22 -27 27 -42 27 -88 0
-51 -3 -58 -39 -94 -36 -36 -43 -39 -96 -39 -53 0 -60 3 -95 38 -64 64 -66
135 -5 196 45 46 92 56 148 32z m23 -2902 c109 -52 92 -221 -25 -254 -51 -14
-103 3 -140 45 -39 45 -44 116 -9 160 48 62 110 79 174 49z"/>
<path d="M1352 6773 c-8 -3 -51 -62 -97 -132 -46 -69 -103 -145 -127 -168 -41
-39 -170 -113 -198 -113 -27 0 -76 -49 -102 -101 -56 -114 -128 -287 -143
-344 -25 -97 -20 -145 22 -228 35 -67 37 -78 37 -157 -1 -53 -12 -143 -32
-240 -57 -283 -73 -457 -73 -760 0 -300 29 -565 91 -845 33 -150 24 -269 -29
-378 -31 -63 -27 -122 14 -230 97 -252 149 -348 213 -388 25 -16 53 -29 61
-29 9 0 44 -13 77 -29 64 -30 114 -84 207 -223 42 -61 76 -81 117 -66 14 5 64
48 113 96 69 68 87 93 87 115 0 18 -27 72 -70 142 -262 428 -424 891 -496
1420 -25 183 -26 655 -1 840 55 410 154 748 323 1105 53 111 91 180 201 364
30 51 53 101 53 117 0 21 -21 52 -81 121 -99 113 -123 129 -167 111z m-294
-693 c89 -55 95 -173 13 -243 -26 -22 -43 -27 -84 -27 -102 0 -155 61 -149
172 2 30 54 95 86 108 38 15 100 11 134 -10z m5 -2884 c52 -22 89 -68 94 -120
9 -80 -29 -135 -109 -157 -52 -13 -98 2 -136 46 -72 81 -36 204 68 233 48 14
46 14 83 -2z"/>
<path d="M3263 6290 c-35 -14 -524 -475 -545 -514 -5 -10 -7 -35 -3 -55 5 -31
67 -96 448 -479 243 -244 454 -450 469 -458 105 -55 228 61 174 164 -8 15
-186 198 -395 407 -210 209 -381 384 -380 390 1 11 239 237 255 242 6 2 178
-166 384 -372 206 -207 387 -383 402 -391 100 -53 217 64 164 164 -23 42 -877
890 -909 902 -33 12 -35 12 -64 0z"/>
<path d="M5283 4240 c-57 -34 -78 -103 -48 -158 8 -15 690 -702 1515 -1527
930 -929 1509 -1515 1522 -1539 15 -30 19 -53 16 -92 -11 -135 -144 -212 -265
-153 -31 15 -460 440 -1545 1531 -827 830 -1515 1516 -1530 1524 -78 41 -178
-23 -178 -114 0 -16 13 -46 29 -68 16 -21 710 -719 1542 -1550 1445 -1442
1517 -1512 1579 -1539 53 -24 83 -30 160 -33 143 -6 247 34 340 130 123 128
145 344 53 508 -28 50 -3029 3061 -3075 3086 -37 19 -77 18 -115 -6z"/>
<path d="M2418 1523 c-53 -54 -99 -109 -103 -122 -12 -40 15 -71 125 -144 58
-38 118 -81 133 -96 34 -31 99 -140 117 -194 16 -50 54 -93 104 -119 99 -50
297 -130 370 -149 91 -23 109 -21 215 30 68 32 84 36 151 34 41 0 144 -15 228
-32 518 -104 1016 -103 1549 4 95 19 198 35 229 35 65 0 160 -23 217 -51 60
-31 118 -27 227 15 223 87 318 134 367 185 22 23 40 56 53 101 31 104 81 160
232 260 20 13 43 39 52 57 14 29 14 38 2 66 -16 40 -179 197 -203 197 -10 0
-68 -30 -128 -66 -439 -263 -887 -419 -1400 -490 -183 -25 -583 -30 -775 -10
-549 58 -1010 212 -1491 499 -81 48 -153 87 -160 87 -8 0 -58 -44 -111 -97z
m3672 -381 c51 -51 60 -96 30 -157 -26 -53 -61 -75 -122 -75 -105 0 -167 101
-121 197 22 48 66 73 127 73 43 0 53 -4 86 -38z m-2934 -13 c37 -23 54 -57 54
-111 0 -106 -111 -166 -203 -109 -41 25 -57 58 -57 119 0 58 28 97 85 117 45
15 75 11 121 -16z"/>
</g>
</svg>
